<svg id="Layer_1" data-name="Layer 1" xmlns="http://www.w3.org/2000/svg" viewBox="0 0 25.21 25.21"><defs><style>.cls-1{fill:#646471;}</style></defs><title>add</title><path class="cls-1" d="M13,.4A12.6,12.6,0,1,0,25.6,13,12.62,12.62,0,0,0,13,.4Zm0,24.06A11.45,11.45,0,1,1,24.45,13,11.45,11.45,0,0,1,13,24.45Z" transform="translate(-0.4 -0.4)"/><g id="Line"><path class="cls-1" d="M17.5,13a.5.5,0,0,1-.5.5H13.5V17a.5.5,0,0,1-1,0V13.5H9a.5.5,0,0,1,0-1h3.5V9a.5.5,0,0,1,1,0v3.5H17A.5.5,0,0,1,17.5,13Z" transform="translate(-0.4 -0.4)"/></g></svg>