<?xml version="1.0" encoding="utf-8"?>
<!-- Generator: Adobe Illustrator 21.0.0, SVG Export Plug-In . SVG Version: 6.00 Build 0)  -->
<svg version="1.1" id="Layer_1" xmlns="http://www.w3.org/2000/svg" xmlns:xlink="http://www.w3.org/1999/xlink" x="0px" y="0px"
	 width="26px" height="26px" viewBox="0 0 26 26" style="enable-background:new 0 0 26 26;" xml:space="preserve">
<style type="text/css">
	.st0{filter:url(#Adobe_OpacityMaskFilter);}
	.st1{fill:#FFFFFF;}
	.st2{mask:url(#mask-2);}
	.st3{fill:#646471;}
</style>
<title>Group 8</title>
<desc>Created with Sketch.</desc>
<g id="Main">
	<g id="Whiplash-Orders-Interactive-UI-Copy" transform="translate(-1216.000000, -663.000000)">
		<g id="Group-8" transform="translate(1216.000000, 663.000000)">
			<defs>
				<filter id="Adobe_OpacityMaskFilter" filterUnits="userSpaceOnUse" x="0" y="0" width="26" height="26">
					<feColorMatrix  type="matrix" values="1 0 0 0 0  0 1 0 0 0  0 0 1 0 0  0 0 0 1 0"/>
				</filter>
			</defs>
			<mask maskUnits="userSpaceOnUse" x="0" y="0" width="26" height="26" id="mask-2">
				<g class="st0">
					<circle id="path-1" class="st1" cx="13" cy="13" r="12.1"/>
				</g>
			</mask>
			<g id="Group-19" class="st2">
				<g id="Oval-40">
					<g id="path-1_1_">
						<path class="st3" d="M13,0C5.8,0,0,5.8,0,13s5.8,13,13,13s13-5.8,13-13S20.2,0,13,0z M13,24.1c-6.1,0-11.1-5-11.1-11.1
							S6.9,1.9,13,1.9s11.1,5,11.1,11.1S19.1,24.1,13,24.1z"/>
					</g>
				</g>
			</g>
			<g id="Line">
				<path class="st3" d="M17.2,13c0,0.3-0.2,0.5-0.5,0.5h-3.2v3.2c0,0.3-0.2,0.5-0.5,0.5s-0.5-0.2-0.5-0.5v-3.2H9.3
					c-0.3,0-0.5-0.2-0.5-0.5s0.2-0.5,0.5-0.5h3.2V9.3c0-0.3,0.2-0.5,0.5-0.5s0.5,0.2,0.5,0.5v3.2h3.2C17,12.5,17.2,12.7,17.2,13z"/>
			</g>
		</g>
	</g>
</g>
</svg>
