<svg id="Layer_1" data-name="Layer 1" xmlns="http://www.w3.org/2000/svg" viewBox="0 0 15.04 18"><defs><style>.cls-1{fill:#c4c2ff;}</style></defs><title>alarm-filled</title><path class="cls-1" d="M16.8,15.1A4.7,4.7,0,0,1,15,11.5v-3a5.58,5.58,0,0,0-4-5.3V2.5a1.5,1.5,0,1,0-3,0v.7A5.58,5.58,0,0,0,4,8.5v3a4.7,4.7,0,0,1-1.8,3.6c-.2.1-.2.4-.2.6a.55.55,0,0,0,.5.3H7v.5a2.5,2.5,0,0,0,5,0,.9.9,0,0,0-.1-.5h4.6a.55.55,0,0,0,.5-.3.48.48,0,0,0-.2-.6ZM9,2.5a.5.5,0,0,1,1,0V3H9Z" transform="translate(-2 -1)"/></svg>