<?xml version="1.0" encoding="utf-8"?>
<!-- Generator: Adobe Illustrator 20.1.0, SVG Export Plug-In . SVG Version: 6.00 Build 0)  -->
<svg version="1.1" id="Layer_1" xmlns="http://www.w3.org/2000/svg" xmlns:xlink="http://www.w3.org/1999/xlink" x="0px" y="0px"
	 width="20px" height="20px" viewBox="0 0 20 20" style="enable-background:new 0 0 20 20;" xml:space="preserve">
<style type="text/css">
	.st0{fill:#C4C2FF;}
</style>
<path class="st0" d="M16.8,15.1c-1.1-0.9-1.8-2.2-1.8-3.6v-3c0-2.5-1.7-4.6-4-5.3V2.5C11,1.7,10.3,1,9.5,1S8,1.7,8,2.5v0.7
	C5.7,3.9,4,6,4,8.5v3c0,1.4-0.7,2.7-1.8,3.6C2,15.2,2,15.5,2,15.7C2.1,15.9,2.3,16,2.5,16H7C7,16.2,7,16.3,7,16.5
	C7,17.9,8.1,19,9.5,19s2.5-1.1,2.5-2.5c0-0.2,0-0.3-0.1-0.5h4.6c0.2,0,0.4-0.1,0.5-0.3S17,15.2,16.8,15.1L16.8,15.1z M9,2.5
	C9,2.2,9.2,2,9.5,2S10,2.2,10,2.5V3C9.8,3,9.7,3,9.5,3S9.2,3,9,3V2.5z"/>
</svg>
