<svg id="Layer_1" data-name="Layer 1" xmlns="http://www.w3.org/2000/svg" viewBox="0 0 21 21"><defs><style>.cls-1{fill:#646471;}</style></defs><title>arrow-right</title><path class="cls-1" d="M11,.5A10.5,10.5,0,1,0,21.5,11,10.5,10.5,0,0,0,11,.5Zm0,20A9.56,9.56,0,0,1,1.5,11,9.56,9.56,0,0,1,11,1.5,9.56,9.56,0,0,1,20.5,11,9.56,9.56,0,0,1,11,20.5Z" transform="translate(-0.5 -0.5)"/><path class="cls-1" d="M16.7,11a.4.4,0,0,1-.2.4l-3.2,2.9a.37.37,0,0,1-.3.1.4.4,0,0,1-.4-.2.48.48,0,0,1,0-.7L15,11.4H6a.47.47,0,0,1-.5-.5c0-.3.2-.4.5-.4h8.9L12.6,8.4a.49.49,0,0,1,.7-.7l3.2,2.9A.4.4,0,0,1,16.7,11Z" transform="translate(-0.5 -0.5)"/></svg>