<?xml version="1.0" encoding="utf-8"?>
<!-- Generator: Adobe Illustrator 21.0.0, SVG Export Plug-In . SVG Version: 6.00 Build 0)  -->
<svg version="1.1" id="Layer_1" xmlns="http://www.w3.org/2000/svg" xmlns:xlink="http://www.w3.org/1999/xlink" x="0px" y="0px"
	 width="22px" height="22px" viewBox="0 0 22 22" style="enable-background:new 0 0 22 22;" xml:space="preserve">
<style type="text/css">
	.st0{fill:#646471;}
</style>
<title>Group 38</title>
<desc>Created with Sketch.</desc>
<g id="Main">
	<g id="Whiplash-Orders-Interactive-UI-Copy" transform="translate(-1219.000000, -1085.000000)">
		<g id="Group-38" transform="translate(1220.000000, 1086.000000)">
			<g id="Oval">
				<path class="st0" d="M10-0.5C4.2-0.5-0.5,4.2-0.5,10S4.2,20.5,10,20.5S20.5,15.8,20.5,10S15.8-0.5,10-0.5z M10,19.5
					c-5.2,0-9.5-4.3-9.5-9.5S4.8,0.5,10,0.5s9.5,4.3,9.5,9.5S15.2,19.5,10,19.5z"/>
			</g>
			<g id="Line">
				<path class="st0" d="M15.7,10c0,0.1,0,0.3-0.2,0.4l-3.2,2.9c-0.1,0.1-0.2,0.1-0.3,0.1c-0.1,0-0.3,0-0.4-0.2
					c-0.2-0.2-0.2-0.5,0-0.7l2.4-2.1H5c-0.3,0-0.5-0.2-0.5-0.5S4.7,9.5,5,9.5h8.9l-2.3-2.1c-0.2-0.2-0.2-0.5,0-0.7
					c0.2-0.2,0.5-0.2,0.7,0l3.2,2.9C15.7,9.7,15.7,9.9,15.7,10z"/>
			</g>
		</g>
	</g>
</g>
</svg>
