<?xml version="1.0" encoding="utf-8"?>
<!-- Generator: Adobe Illustrator 21.0.0, SVG Export Plug-In . SVG Version: 6.00 Build 0)  -->
<svg version="1.1" id="Layer_1" xmlns="http://www.w3.org/2000/svg" xmlns:xlink="http://www.w3.org/1999/xlink" x="0px" y="0px"
	 width="20px" height="20px" viewBox="0 0 20 20" style="enable-background:new 0 0 20 20;" xml:space="preserve">
<style type="text/css">
	.st0{filter:url(#Adobe_OpacityMaskFilter);}
	.st1{fill:#FFFFFF;}
	.st2{mask:url(#mask-2);}
	.st3{fill:#5134C4;}
</style>
<title>Group 26</title>
<desc>Created with Sketch.</desc>
<g id="Main">
	<g id="Whiplash-Orders-Interactive-UI-Copy" transform="translate(-1220.000000, -1386.000000)">
		<defs>
			<filter id="Adobe_OpacityMaskFilter" filterUnits="userSpaceOnUse" x="1226.8" y="1394.8" width="6.3" height="3.4">
				<feColorMatrix  type="matrix" values="1 0 0 0 0  0 1 0 0 0  0 0 1 0 0  0 0 0 1 0"/>
			</filter>
		</defs>
		<mask maskUnits="userSpaceOnUse" x="1226.8" y="1394.8" width="6.3" height="3.4" id="mask-2">
			<g class="st0">
				<circle id="path-1" class="st1" cx="1230" cy="1396" r="9.9"/>
			</g>
		</mask>
		<g id="Group-26" transform="translate(1220.000000, 1386.000000)" class="st2">
			<g id="Group-31" transform="translate(7.000000, 9.000000)">
				<g id="Fill-1">
					<path class="st3" d="M6.2,0.3c0,0.1,0,0.2-0.1,0.3L3.3,3.1C3.2,3.1,3.1,3.2,3,3.2s-0.2,0-0.3-0.1L0,0.6
						c-0.1-0.1-0.1-0.2-0.1-0.3c0-0.1,0-0.2,0.1-0.3c0.2-0.2,0.5-0.2,0.6,0L3,2.1l2.4-2.2c0.2-0.2,0.5-0.2,0.6,0
						C6.1,0,6.2,0.1,6.2,0.3z"/>
				</g>
			</g>
		</g>
		<g>
			<path class="st3" d="M1230,1405.7c-5.4,0-9.7-4.4-9.7-9.7c0-5.4,4.4-9.7,9.7-9.7c5.4,0,9.7,4.4,9.7,9.7
				C1239.7,1401.4,1235.4,1405.7,1230,1405.7z M1230,1387.4c-4.8,0-8.6,3.9-8.6,8.6c0,4.8,3.9,8.6,8.6,8.6c4.8,0,8.6-3.9,8.6-8.6
				C1238.6,1391.2,1234.8,1387.4,1230,1387.4z"/>
		</g>
	</g>
</g>
</svg>
