<?xml version="1.0" encoding="UTF-8"?>
<svg width="24px" height="25px" viewBox="0 0 24 25" version="1.1" xmlns="http://www.w3.org/2000/svg" xmlns:xlink="http://www.w3.org/1999/xlink">
    <!-- Generator: Sketch 41.2 (35397) - http://www.bohemiancoding.com/sketch -->
    <title>Group 35</title>
    <desc>Created with Sketch.</desc>
    <defs>
        <rect id="path-1" x="0" y="10" width="22" height="1"></rect>
        <mask id="mask-2" maskContentUnits="userSpaceOnUse" maskUnits="objectBoundingBox" x="0" y="0" width="22" height="1" fill="white">
            <use xlink:href="#path-1"></use>
        </mask>
    </defs>
    <g id="Main" stroke="none" stroke-width="1" fill="none" fill-rule="evenodd">
        <g id="Whiplash-Orders-Interactive-UI-Copy" transform="translate(-1217.000000, -1201.000000)">
            <g id="Group-35" transform="translate(1218.000000, 1201.000000)">
                <path d="M18.3424514,2 C20.3624597,2 22,3.63560217 22,5.6575486 L22,20.3424514 C22,22.3624597 20.3643978,24 18.3424514,24 L3.6575486,24 C1.63754028,24 0,22.3643978 0,20.3424514 L0,5.6575486 C0,3.63754028 1.63560217,2 3.6575486,2" id="Rectangle-42" stroke="#646471"></path>
                <use id="Rectangle-3" stroke="#646471" mask="url(#mask-2)" stroke-width="2" fill="#7A7A92" xlink:href="#path-1"></use>
                <path d="M8,2 L14,2" id="Line" stroke="#646471" stroke-linecap="round"></path>
                <rect id="Rectangle-10" fill="#646471" x="5" y="0" width="1" height="5" rx="0.5"></rect>
                <circle id="Oval" stroke="#646471" cx="5.5" cy="6.5" r="1.5"></circle>
                <rect id="Rectangle-10" fill="#646471" x="16" y="0" width="1" height="5" rx="0.5"></rect>
                <circle id="Oval" stroke="#646471" cx="16.5" cy="6.5" r="1.5"></circle>
            </g>
        </g>
    </g>
</svg>