<?xml version="1.0" encoding="UTF-8"?>
<svg width="25px" height="26px" viewBox="0 0 25 26" version="1.1" xmlns="http://www.w3.org/2000/svg" xmlns:xlink="http://www.w3.org/1999/xlink">
    <!-- Generator: Sketch 41.2 (35397) - http://www.bohemiancoding.com/sketch -->
    <title>icon-export</title>
    <desc>Created with Sketch.</desc>
    <defs></defs>
    <g id="Main" stroke="none" stroke-width="1" fill="none" fill-rule="evenodd">
        <g id="Whiplash-Orders-Interactive-UI-Copy" transform="translate(-1218.000000, -360.000000)" fill="#646471">
            <g id="icon-export" transform="translate(1218.000000, 360.000000)">
                <path d="M1.8261,26 C0.9131,26 0.000100000001,24.971 0.000100000001,24.007 L0.000100000001,8.543 C0.000100000001,7.643 0.7611,7 1.8261,7 L5.7831,7 C6.0261,7 6.2391,7.243 6.2391,7.5 C6.2391,7.757 6.0261,8 5.7831,8 L1.8261,8 C1.4611,8 1.0001,8.125 1.0001,8.543 L1.0001,24.007 C1.0001,24.457 1.4301,25 1.8261,25 L23.4781,25 C23.8131,25 24.0001,24.489 24.0001,24.007 L24.0001,8.543 C24.0001,8.189 23.9961,8 23.4781,8 L19.2171,8 C18.9741,8 18.7611,7.757 18.7611,7.5 C18.7611,7.243 18.9741,7 19.2171,7 L23.4781,7 C24.4221,7 25.0001,7.579 25.0001,8.543 L25.0001,24.007 C25.0001,24.971 24.4221,26 23.4781,26 L1.8261,26 Z" id="Fill-1"></path>
                <g id="Group-22" transform="translate(8.000000, 0.000000)">
                    <path d="M4,14.5212766 L4,0.478723404 C4,0.223404255 4.23333333,0 4.5,0 C4.76666667,0 5,0.223404255 5,0.478723404 L5,14.5212766 C5,14.7765957 4.76666667,15 4.5,15 C4.23333333,15 4,14.7765957 4,14.5212766 Z" id="Shape"></path>
                    <path d="M5.97487373,4.83657586 L5.97487373,0.113171606 C5.97487373,-0.227253925 6.20820707,-0.525126266 6.47487373,-0.525126266 C6.7415404,-0.525126266 6.97487373,-0.227253925 6.97487373,0.113171606 L6.97487373,4.83657586 C6.97487373,5.17700139 6.7415404,5.47487373 6.47487373,5.47487373 C6.20820707,5.47487373 5.97487373,5.17700139 5.97487373,4.83657586 Z" id="Shape" transform="translate(6.474874, 2.474874) rotate(-45.000000) translate(-6.474874, -2.474874) "></path>
                    <path d="M1.97487373,4.83657586 L1.97487373,0.113171606 C1.97487373,-0.227253925 2.20820707,-0.525126266 2.47487373,-0.525126266 C2.7415404,-0.525126266 2.97487373,-0.227253925 2.97487373,0.113171606 L2.97487373,4.83657586 C2.97487373,5.17700139 2.7415404,5.47487373 2.47487373,5.47487373 C2.20820707,5.47487373 1.97487373,5.17700139 1.97487373,4.83657586 Z" id="Shape" transform="translate(2.474874, 2.474874) scale(-1, 1) rotate(-45.000000) translate(-2.474874, -2.474874) "></path>
                </g>
                <path d="M16.5645161,20 L8.43548387,20 C8.20322581,20 8,19.7666667 8,19.5 C8,19.2333333 8.20322581,19 8.43548387,19 L16.5645161,19 C16.7967742,19 17,19.2333333 17,19.5 C17,19.7666667 16.7967742,20 16.5645161,20 L16.5645161,20 Z" id="Shape"></path>
            </g>
        </g>
    </g>
</svg>