<?xml version="1.0" encoding="UTF-8"?>
<svg width="23px" height="23px" viewBox="0 0 23 23" version="1.1" xmlns="http://www.w3.org/2000/svg" xmlns:xlink="http://www.w3.org/1999/xlink">
    <!-- Generator: Sketch 41.2 (35397) - http://www.bohemiancoding.com/sketch -->
    <title>Group 30</title>
    <desc>Created with Sketch.</desc>
    <defs>
        <path d="M7.44657841,1.82619472e-12 L0.563638221,6.77948972 C-0.184940398,7.51681721 -0.190531818,8.7067539 0.562799077,9.44876225 C1.31091425,10.1856333 2.52740441,10.1821309 3.27280292,9.44793572 L10,2.82184828 C8.95769656,2.10993508 8.08111421,1.14192171 7.44657841,-1.86517468e-14 L7.44657841,1.82619472e-12 Z" id="path-1"></path>
        <mask id="mask-2" maskContentUnits="userSpaceOnUse" maskUnits="objectBoundingBox" x="0" y="0" width="10" height="10" fill="white">
            <use xlink:href="#path-1"></use>
        </mask>
    </defs>
    <g id="Main" stroke="none" stroke-width="1" fill="none" fill-rule="evenodd">
        <g id="Whiplash-Orders-Interactive-UI-Copy" transform="translate(-1218.000000, -302.000000)" stroke="#646471">
            <g id="Group-30" transform="translate(1230.000000, 314.000000) scale(-1, 1) translate(-1230.000000, -314.000000) translate(1219.000000, 303.000000)">
                <g id="Group-31" transform="translate(0.000000, 12.000000)" stroke-width="2" fill="#FFFFFF">
                    <use id="Combined-Shape" mask="url(#mask-2)" xlink:href="#path-1"></use>
                </g>
                <path d="M14,16 C9.581722,16 6,12.418278 6,8 C6,3.581722 9.581722,0 14,0 C18.418278,0 22,3.581722 22,8 C22,12.418278 18.418278,16 14,16 Z" id="Oval-81"></path>
            </g>
        </g>
    </g>
</svg>