<?xml version="1.0" encoding="UTF-8"?>
<svg width="24px" height="24px" viewBox="0 0 24 24" version="1.1" xmlns="http://www.w3.org/2000/svg" xmlns:xlink="http://www.w3.org/1999/xlink">
    <!-- Generator: Sketch 41.2 (35397) - http://www.bohemiancoding.com/sketch -->
    <title>Group 17 Copy</title>
    <desc>Created with Sketch.</desc>
    <defs></defs>
    <g id="Main" stroke="none" stroke-width="1" fill="none" fill-rule="evenodd">
        <g id="Whiplash-Orders-Interactive-UI-Copy" transform="translate(-1219.000000, -1443.000000)" fill="#646471">
            <g id="Group-17-Copy" transform="translate(1219.000000, 1443.000000)">
                <path d="M7.27022375,18.7951807 L7.51807229,18.9604131 C8.34423408,19.4974182 9.21170396,19.869191 10.16179,20.0757315 L10.4509466,20.1583477 L10.616179,22.6781411 C10.616179,22.9672978 10.8640275,23.1738382 11.1531842,23.1738382 L12.6815835,23.1738382 C12.9707401,23.1738382 13.2185886,22.9672978 13.2185886,22.6781411 L13.383821,20.1583477 L13.6729776,20.0757315 C14.6230637,19.869191 15.4905336,19.4974182 16.3166954,18.9604131 L16.5645439,18.7951807 L18.464716,20.4475043 C18.5473322,20.5301205 18.6712565,20.5714286 18.8364888,20.5714286 C19.0017212,20.5714286 19.1256454,20.5301205 19.2082616,20.4061962 L20.2822719,19.3321859 C20.4888124,19.1256454 20.4888124,18.7951807 20.32358,18.5886403 L18.6712565,16.6884682 L18.8364888,16.4406196 C19.373494,15.6144578 19.7452668,14.746988 19.9518072,13.7969019 L20.0344234,13.5077453 L22.5542169,13.3425129 C22.8433735,13.3425129 23.0499139,13.0946644 23.0499139,12.8055077 L23.0499139,11.2771084 C23.0499139,10.9879518 22.8433735,10.7401033 22.5542169,10.7401033 L20.0344234,10.5748709 L19.9518072,10.2857143 C19.7452668,9.33562823 19.373494,8.46815835 18.8364888,7.64199656 L18.6712565,7.39414802 L20.32358,5.4939759 C20.5301205,5.28743546 20.4888124,4.95697074 20.2822719,4.75043029 L19.2082616,3.67641997 C19.0017212,3.46987952 18.6712565,3.46987952 18.464716,3.63511188 L16.5645439,5.28743546 L16.3166954,5.1222031 C15.4905336,4.58519793 14.6230637,4.21342513 13.6729776,4.00688468 L13.383821,3.9242685 L13.2185886,1.40447504 C13.2185886,1.11531842 12.9707401,0.908777969 12.6815835,0.908777969 L11.1531842,0.908777969 C10.8640275,0.908777969 10.616179,1.11531842 10.616179,1.40447504 L10.4509466,3.9242685 L10.16179,4.00688468 C9.21170396,4.21342513 8.34423408,4.58519793 7.51807229,5.1222031 L7.27022375,5.28743546 L5.37005164,3.63511188 C5.16351119,3.46987952 4.83304647,3.46987952 4.62650602,3.67641997 L3.5524957,4.75043029 C3.34595525,4.95697074 3.34595525,5.28743546 3.51118761,5.4939759 L5.16351119,7.39414802 L4.99827883,7.64199656 C4.46127367,8.46815835 4.08950086,9.33562823 3.88296041,10.2857143 L3.80034423,10.5748709 L1.28055077,10.7401033 C0.991394148,10.7401033 0.784853701,10.9879518 0.784853701,11.2771084 L0.784853701,12.8055077 C0.784853701,13.0946644 0.991394148,13.3425129 1.28055077,13.3425129 L3.80034423,13.5077453 L3.88296041,13.7969019 C4.08950086,14.746988 4.46127367,15.6144578 4.99827883,16.4406196 L5.16351119,16.6884682 L3.51118761,18.5886403 C3.30464716,18.7951807 3.34595525,19.1256454 3.5524957,19.3321859 L4.62650602,20.4061962 C4.83304647,20.6127367 5.16351119,20.6127367 5.37005164,20.4475043 L7.27022375,18.7951807 Z M12.7228916,24 L11.1944923,24 C10.4922547,24 9.87263339,23.4216867 9.8313253,22.7194492 L9.70740103,20.8192771 C8.88123924,20.6127367 8.09638554,20.2822719 7.35283993,19.827883 L5.9070568,21.0671256 C5.37005164,21.5215146 4.54388985,21.4802065 4.04819277,20.9845095 L2.97418244,19.9104991 C2.47848537,19.4561102 2.43717728,18.6299484 2.89156627,18.0929432 L4.13080895,16.6471601 C3.67641997,15.9036145 3.34595525,15.1187608 3.1394148,14.292599 L1.23924269,14.1686747 C0.578313253,14.0860585 0,13.5077453 0,12.7641997 L0,11.2358003 C0,10.5335628 0.578313253,9.91394148 1.28055077,9.87263339 L3.18072289,9.74870912 C3.38726334,8.92254733 3.71772806,8.13769363 4.17211704,7.39414802 L2.93287435,5.94836489 C2.43717728,5.41135972 2.47848537,4.58519793 2.97418244,4.08950086 L4.04819277,3.01549053 C4.54388985,2.51979346 5.37005164,2.47848537 5.9070568,2.93287435 L7.35283993,4.17211704 C8.09638554,3.71772806 8.88123924,3.38726334 9.70740103,3.18072289 L9.8313253,1.28055077 C9.87263339,0.578313253 10.4922547,0 11.1944923,0 L12.7228916,0 C13.4251291,0 14.0447504,0.578313253 14.0860585,1.28055077 L14.2099828,3.18072289 C15.0361446,3.38726334 15.8209983,3.71772806 16.5645439,4.17211704 L18.010327,2.93287435 C18.5473322,2.47848537 19.373494,2.51979346 19.869191,3.01549053 L20.9432014,4.08950086 C21.4802065,4.58519793 21.5215146,5.41135972 21.0671256,5.94836489 L19.827883,7.39414802 C20.2822719,8.13769363 20.6127367,8.92254733 20.8192771,9.74870912 L22.7194492,9.87263339 C23.4216867,9.91394148 24,10.5335628 24,11.2358003 L24,12.7641997 C24,13.4664372 23.4216867,14.0860585 22.7194492,14.1273666 L20.8192771,14.2512909 C20.6127367,15.0774527 20.2822719,15.8623064 19.827883,16.605852 L21.0671256,18.0516351 C21.5215146,18.5886403 21.5215146,19.4148021 20.9845095,19.9104991 L19.9104991,20.9845095 C19.6626506,21.232358 19.2908778,21.3975904 18.9604131,21.3975904 C18.6299484,21.3975904 18.2994836,21.2736661 18.0516351,21.0671256 L16.605852,19.827883 C15.8623064,20.2822719 15.0774527,20.6127367 14.2512909,20.8192771 L14.1273666,22.7194492 C14.0447504,23.4216867 13.4664372,24 12.7228916,24 L12.7228916,24 Z" id="Fill-1"></path>
                <path d="M12,9.33333333 C10.5142857,9.33333333 9.33333333,10.5142857 9.33333333,12 C9.33333333,13.4857143 10.5142857,14.6666667 12,14.6666667 C13.4857143,14.6666667 14.6666667,13.4857143 14.6666667,12 C14.6666667,10.5142857 13.4857143,9.33333333 12,9.33333333 M12,15.4285714 C10.0952381,15.4285714 8.57142857,13.9047619 8.57142857,12 C8.57142857,10.0952381 10.0952381,8.57142857 12,8.57142857 C13.9047619,8.57142857 15.4285714,10.0952381 15.4285714,12 C15.4285714,13.9047619 13.9047619,15.4285714 12,15.4285714" id="Fill-3"></path>
            </g>
        </g>
    </g>
</svg>