<?xml version="1.0" encoding="UTF-8"?>
<svg width="20px" height="20px" viewBox="0 0 20 20" version="1.1" xmlns="http://www.w3.org/2000/svg" xmlns:xlink="http://www.w3.org/1999/xlink">
    <!-- Generator: Sketch 41.2 (35397) - http://www.bohemiancoding.com/sketch -->
    <title>Group 26</title>
    <desc>Created with Sketch.</desc>
    <defs>
        <path d="M5,0.998956561 C5,0.447248087 5.45303631,0 5.99703014,0 L12.0029699,0 C12.5536144,0 13,0.442660332 13,0.998956561 L13,2.00104344 C13,2.55275191 12.5469637,3 12.0029699,3 L5.99703014,3 C5.4463856,3 5,2.55733967 5,2.00104344 L5,0.998956561 Z" id="path-1"></path>
        <mask id="mask-2" maskContentUnits="userSpaceOnUse" maskUnits="objectBoundingBox" x="0" y="0" width="8" height="3" fill="white">
            <use xlink:href="#path-1"></use>
        </mask>
        <path d="M1,2 L17,2 L16.0515608,18.0049107 C15.9862656,19.1067681 15.0448166,20 13.9318102,20 L4.06818979,20 C2.96277909,20 2.0137705,19.1073772 1.94843915,18.0049107 L1,2 Z" id="path-3"></path>
        <mask id="mask-4" maskContentUnits="userSpaceOnUse" maskUnits="objectBoundingBox" x="0" y="0" width="16" height="18" fill="white">
            <use xlink:href="#path-3"></use>
        </mask>
    </defs>
    <g id="Main" stroke="none" stroke-width="1" fill="none" fill-rule="evenodd">
        <g id="Whiplash-Orders-Interactive-UI-Copy" transform="translate(-1219.000000, -964.000000)" stroke="#646471">
            <g id="Group-26" transform="translate(1220.000000, 964.000000)">
                <g id="Group-24">
                    <use id="Rectangle-285" mask="url(#mask-2)" stroke-width="2" xlink:href="#path-1"></use>
                    <use id="Rectangle-285" mask="url(#mask-4)" stroke-width="2" xlink:href="#path-3"></use>
                    <path d="M0,2.5 L18,2.5" id="Line" stroke-linecap="round"></path>
                    <path d="M7,8 L7,13" id="Line" stroke-linecap="round"></path>
                    <path d="M11,8 L11,13" id="Line" stroke-linecap="round"></path>
                </g>
            </g>
        </g>
    </g>
</svg>