<svg xmlns="http://www.w3.org/2000/svg" viewBox="0 0 161 28"><g fill="none" fill-rule="evenodd"><path fill="#4641BE" fill-rule="nonzero" d="M29.81 12.85c.005-.023.005-.047 0-.07.002.037.002.073 0 .11.003-.013.003-.027 0-.04zm0 0c.003.04.003.08 0 .12.005.05.005.1 0 .15.015-.076.015-.154 0-.23v-.04z"/><path fill="#4641BE" fill-rule="nonzero" d="M29.81 12.89c.002-.037.002-.073 0-.11.005-.023.005-.047 0-.07L22.63.38V.3c-.024-.044-.055-.084-.09-.12-.083-.09-.19-.153-.31-.18H7.6c-.102.03-.195.084-.27.16-.037.042-.067.09-.09.14v.08L.08 12.71c-.023.05-.043.1-.06.15-.013.046-.02.093-.02.14-.007.046-.007.094 0 .14.012.056.032.11.06.16l7.1 12.3v.07c.025.043.056.083.09.12.034.04.074.074.12.1l.23.11h14.63l.14-.06c.046-.026.086-.06.12-.1.035-.036.066-.076.09-.12v-.07l7.1-12.25v-.06c.026-.048.046-.098.06-.15.005-.05.005-.1 0-.15.028-.048.052-.098.07-.15zM7.16 23.19l-4.93-8.55 4.93 2.85v5.7zm0-7.08L1.79 13l5.37-3.1v6.21zm0-7.59l-4.93 2.85 4.93-8.55v5.7zm12.69-7.33L14.91 4 10 1.19h9.85zm-4.94 11.13l-6-3.44 6-3.44 6 3.44-6 3.44zM8.35 1.63l5.36 3.1-5.36 3.1v-6.2zm0 8.28l6 3.44v6.89l-6-3.44V9.91zm0 8.27l5.36 3.1-5.36 3.1v-6.2zM10 24.81L14.91 22l4.93 2.85-9.84-.04zm11.49-.44l-5.37-3.1 5.37-3.1v6.2zm0-7.58l-6 3.44v-6.9l6-3.44v6.9zm0-9L16.1 4.74l5.37-3.1.02 6.15zm1.19-5l4.93 8.54-4.94-2.81.01-5.73zm0 20.35v-5.7l4.93-2.85-4.93 8.55zm0-7.07V9.9L28 13l-5.32 3.07z"/><text fill="#303030" font-family="Aller-Light, Aller Light" font-size="24" letter-spacing="1.303" transform="translate(-1)"><tspan x="48.306" y="22">UI Library</tspan></text></g></svg>
