<svg id="Layer_1" data-name="Layer 1" xmlns="http://www.w3.org/2000/svg" width="161.1" height="26.01" viewBox="0 0 161.1 26.01"><defs><style>.cls-1{fill:#4641BE;}</style></defs><title>whiplash-horizontal-white</title><g id="_Group_" data-name="&lt;Group&gt;"><path id="_Compound_Path_" data-name="&lt;Compound Path&gt;" class="cls-1" d="M29.81,12.85a.18.18,0,0,0,0-.07.89.89,0,0,1,0,.11A.09.09,0,0,0,29.81,12.85Zm0,0a.85.85,0,0,1,0,.12.7.7,0,0,1,0,.15A.59.59,0,0,0,29.81,12.89Z"/><path class="cls-1" d="M29.81,12.89a.89.89,0,0,0,0-.11.18.18,0,0,0,0-.07L22.63.38l0-.08a.56.56,0,0,0-.09-.12A.6.6,0,0,0,22.23,0l-.16,0H7.76L7.6,0a.62.62,0,0,0-.27.16A.56.56,0,0,0,7.24.3l0,.08L.08,12.71a1.2,1.2,0,0,0-.06.15A.53.53,0,0,0,0,13a.44.44,0,0,0,0,.14.56.56,0,0,0,.06.16l0,0,7.1,12.3,0,.07a.67.67,0,0,0,.09.12.45.45,0,0,0,.12.1L7.6,26l.16,0H22.07l.16,0,.14-.06a.45.45,0,0,0,.12-.1.56.56,0,0,0,.09-.12l0-.07L29.68,13.4l0-.06,0,0a.72.72,0,0,0,.06-.15.7.7,0,0,0,0-.15A.85.85,0,0,0,29.81,12.89ZM7.16,23.19,2.23,14.64l4.93,2.85Zm0-7.08L1.79,13,7.16,9.9Zm0-7.59L2.23,11.37,7.16,2.82ZM19.85,1.19,14.91,4,10,1.19ZM14.91,12.32l-6-3.44,6-3.44,6,3.44ZM8.35,1.63l5.36,3.1L8.35,7.83Zm0,8.28,6,3.44v6.89l-6-3.44Zm0,8.27,5.36,3.1-5.36,3.1ZM10,24.81,14.91,22l4.93,2.85Zm11.49-.44-5.37-3.1,5.37-3.1Zm0-7.58-6,3.44v-6.9l6-3.44Zm0-9L16.1,4.74l5.37-3.1Zm1.19-5,4.93,8.54L22.67,8.52Zm0,20.35v-5.7l4.93-2.85Zm0-7.07V9.9L28,13Z"/><g id="_Group_2" data-name="&lt;Group&gt;"><path id="_Path_" data-name="&lt;Path&gt;" class="cls-1" d="M53.52,1.69c-.06-.33-.22-.4-.32-.43H50.5s-.28,0-.35.43L47.91,17.15,45.67,1.69c-.06-.43-.35-.43-.35-.43H42.64s-.28,0-.25.43l3.79,22.89a.46.46,0,0,0,.44.43H49.2a.46.46,0,0,0,.44-.43l2.18-13.36L54,24.58a.46.46,0,0,0,.44.43h2.62a.44.44,0,0,0,.41-.43L61.28,1.69c.06-.43-.22-.43-.22-.43H58.35s-.28,0-.35.43L55.76,17.15,53.52,1.69Z"/><path id="_Path_2" data-name="&lt;Path&gt;" class="cls-1" d="M73.56,14.12V24.58a.38.38,0,0,0,.38.43h2.49a.38.38,0,0,0,.38-.43V1.69a.38.38,0,0,0-.38-.43H73.93a.38.38,0,0,0-.38.43v9.2H69.61V1.69a.38.38,0,0,0-.38-.43H66.77a.39.39,0,0,0-.41.43V24.58a.39.39,0,0,0,.41.43h2.46a.38.38,0,0,0,.38-.43V14.12Z"/><path id="_Path_3" data-name="&lt;Path&gt;" class="cls-1" d="M85.73,1.69a.38.38,0,0,0-.38-.43H82.89a.39.39,0,0,0-.41.43V24.58a.39.39,0,0,0,.41.43h2.46a.38.38,0,0,0,.38-.43V1.69Z"/><path id="_Compound_Path_2" data-name="&lt;Compound Path&gt;" class="cls-1" d="M91.41,24.58a.39.39,0,0,0,.41.43h2.46a.38.38,0,0,0,.38-.43v-9.1h3.66A3.41,3.41,0,0,0,101.63,12V4.72a3.41,3.41,0,0,0-3.31-3.46h-6.5a.39.39,0,0,0-.41.43V24.58Zm6.94-13.06a.83.83,0,0,1-.82.86H94.66V4.49h2.87a.83.83,0,0,1,.82.86v6.17Z"/><path id="_Path_4" data-name="&lt;Path&gt;" class="cls-1" d="M106.84,24.58a.39.39,0,0,0,.41.43H116a.38.38,0,0,0,.38-.43V22.2a.38.38,0,0,0-.38-.43h-6V1.69a.38.38,0,0,0-.38-.43h-2.46a.39.39,0,0,0-.41.43V24.58Z"/><path id="_Compound_Path_3" data-name="&lt;Compound Path&gt;" class="cls-1" d="M125.73,8.81,127,18.18h-2.43l1.2-9.37Zm-1.29-7.55a.42.42,0,0,0-.41.43l-3.79,22.89c-.06.43.22.43.22.43h2.71s.28,0,.32-.43l.54-3.17h3.44l.54,3.17c0,.43.32.43.32.43H131s.28,0,.22-.43L127.47,1.69a.42.42,0,0,0-.41-.43Z"/><path id="_Path_5" data-name="&lt;Path&gt;" class="cls-1" d="M135.23,21.67a3.42,3.42,0,0,0,3.34,3.5h3.56a3.4,3.4,0,0,0,3.31-3.5v-7a3.37,3.37,0,0,0-3.31-3.46h-2.81a.85.85,0,0,1-.82-.86V5.22a.83.83,0,0,1,.82-.86h1.89a.81.81,0,0,1,.82.86V6.77a.41.41,0,0,0,.41.43h2.46a.39.39,0,0,0,.41-.43V4.59A3.39,3.39,0,0,0,142,1.13h-3.44a3.39,3.39,0,0,0-3.34,3.46v6.23a3.42,3.42,0,0,0,3.34,3.46h2.81a.85.85,0,0,1,.82.86v6a.85.85,0,0,1-.82.86h-2.05a.85.85,0,0,1-.82-.86V18a.39.39,0,0,0-.41-.43h-2.46a.41.41,0,0,0-.41.43v3.66Z"/><path id="_Path_6" data-name="&lt;Path&gt;" class="cls-1" d="M157.85,14.12V24.58a.38.38,0,0,0,.38.43h2.49a.38.38,0,0,0,.38-.43V1.69a.38.38,0,0,0-.38-.43h-2.49a.38.38,0,0,0-.38.43v9.2h-3.94V1.69a.38.38,0,0,0-.38-.43h-2.46a.39.39,0,0,0-.41.43V24.58a.39.39,0,0,0,.41.43h2.46a.38.38,0,0,0,.38-.43V14.12Z"/></g></g></svg>
