<svg xmlns="http://www.w3.org/2000/svg" viewBox="0 0 13 10"><path fill="#808091" fill-rule="evenodd" d="M3.12.372c.056-.008.132-.014.228-.018.096-.004.184-.006.264-.006.088 0 .178.002.27.006.092.004.166.01.222.018L6.984 9c-.048.008-.116.014-.204.018-.088.004-.172.006-.252.006-.072 0-.148-.002-.228-.006-.08-.004-.148-.01-.204-.018l-.72-2.196H1.824L1.14 9c-.064.008-.138.014-.222.018-.084.004-.162.006-.234.006-.08 0-.162-.002-.246-.006C.354 9.014.288 9.008.24 9L3.12.372zm2.016 5.664l-1.548-4.8-1.524 4.8h3.072zm6.516-.012c-.136-.016-.306-.034-.51-.054-.204-.02-.398-.03-.582-.03-.6 0-1.064.112-1.392.336-.328.224-.492.544-.492.96 0 .264.05.476.15.636.1.16.23.282.39.366.16.084.336.14.528.168.192.028.384.042.576.042.248 0 .48-.012.696-.036.216-.024.428-.056.636-.096V6.024zm0-1.068c0-.528-.124-.914-.372-1.158-.248-.244-.616-.366-1.104-.366-.32 0-.612.022-.876.066-.264.044-.5.098-.708.162-.04-.072-.074-.176-.102-.312-.028-.136-.042-.264-.042-.384.208-.064.464-.118.768-.162.304-.044.616-.066.936-.066.776 0 1.352.17 1.728.51.376.34.564.874.564 1.602v4.044c-.28.056-.62.112-1.02.168-.4.056-.78.084-1.14.084-.744 0-1.33-.148-1.758-.444-.428-.296-.642-.776-.642-1.44 0-.32.062-.606.186-.858s.296-.464.516-.636c.22-.172.484-.302.792-.39.308-.088.646-.132 1.014-.132.288 0 .536.01.744.03.208.02.38.038.516.054v-.372z"/></svg>
