<svg id="Layer_1" data-name="Layer 1" xmlns="http://www.w3.org/2000/svg" width="73.22" height="63.85" viewBox="0 0 73.22 63.85"><defs><style>.cls-1{fill:#fff;}</style></defs><title>whiplash-geo-logo</title><path class="cls-1" d="M54.57,63.8a1.4,1.4,0,0,0,.3-.12Zm-.34,0a2,2,0,0,0,.32,0ZM0,31.55l0,.07,0-.07v0Zm0,.27a1.33,1.33,0,0,1,0-.17A1.14,1.14,0,0,0,0,31.82Z"/><path class="cls-1" d="M73.22,31.82a1.33,1.33,0,0,0,0-.17v0l0-.12h0c0-.1-.09-.2-.13-.3L55.45.73h0c-.07-.09-.12-.18-.19-.26l0,0a1.46,1.46,0,0,0-.66-.38H54.5l-.32,0H19l-.32,0h-.06A1.46,1.46,0,0,0,18,.43l-.05.06,0,0h0l-.08.11-.08.11,0,.05L.2,31.19c0,.1-.09.19-.13.29v.06l0,.07v0a1.33,1.33,0,0,0,0,.17A1.16,1.16,0,0,0,0,32a1.33,1.33,0,0,0,0,.17v0l0,.12h0c0,.1.09.2.13.3L17.77,63.12l.16.22h0l.06.07a1.47,1.47,0,0,0,.3.23,1.51,1.51,0,0,0,.26.12h.13c.11,0,.23,0,.34,0H54.23l.32,0h0l.3-.12,0,0a1.5,1.5,0,0,0,.3-.23l0,0c.07-.08.13-.18.2-.27L73,32.66c0-.1.09-.19.13-.29V32.3l0-.07v0a1.14,1.14,0,0,0,0-.17,1.16,1.16,0,0,0,0-.21ZM55.65,6.93l12.11,21-12.11-7ZM20.5,24.32l14.64,8.45V49.69L20.5,41.23Zm16.11,5.91L22,21.78l14.66-8.47,14.66,8.47Zm16.11-11L39.54,11.62,52.72,4Zm-4-16.31-12.11,7-12.11-7ZM20.5,4l13.18,7.62L20.5,19.23ZM17.57,6.93v14l-12.11,7Zm0,50-12.11-21,12.11,7Zm0-17.37L4.39,31.92l13.18-7.62Zm2.93,5.07,13.18,7.62L20.5,59.85Zm4,16.31,12.11-7,12.11,7Zm28.22-1.07L39.54,52.23l13.18-7.62Zm0-18.61L38.07,49.69V32.77l14.64-8.45Zm2.93,15.68v-14l12.11-7Zm0-17.37V24.31l13.18,7.62Z"/><path class="cls-1" d="M0,31.65a1.33,1.33,0,0,0,0,.17A1.14,1.14,0,0,1,0,31.65Z"/><path class="cls-1" d="M55.25,63.38a1.4,1.4,0,0,0,.2-.27C55.38,63.2,55.33,63.3,55.25,63.38Zm-.7.42h0ZM54.18,0l.32,0A1.39,1.39,0,0,0,54.18,0Zm1.07.46c.07.08.13.17.19.26A1.34,1.34,0,0,0,55.25.46ZM.07,31.48c0-.1.09-.19.13-.29A1.41,1.41,0,0,0,.07,31.48Zm0,.88a1.36,1.36,0,0,0,.13.3C.15,32.56.1,32.46.07,32.36Z"/></svg>
